<svg width="336" height="49" viewBox="0 0 336 49" fill="none" xmlns="http://www.w3.org/2000/svg">
<path d="M33.104 3.2H39.504V48H33.104V3.2ZM7.376 48H0.976V3.2H7.376V48ZM33.68 28.032H6.736V22.464H33.68V28.032ZM73.252 48V40.832L72.932 39.488V27.264C72.932 24.6613 72.164 22.656 70.628 21.248C69.1347 19.7973 66.8733 19.072 63.844 19.072C61.8387 19.072 59.876 19.4133 57.956 20.096C56.036 20.736 54.4147 21.6107 53.092 22.72L50.532 18.112C52.2813 16.704 54.372 15.6373 56.804 14.912C59.2787 14.144 61.86 13.76 64.548 13.76C69.1987 13.76 72.7827 14.8907 75.3 17.152C77.8173 19.4133 79.076 22.8693 79.076 27.52V48H73.252ZM62.116 48.384C59.5987 48.384 57.38 47.9573 55.46 47.104C53.5827 46.2507 52.132 45.0773 51.108 43.584C50.084 42.048 49.572 40.32 49.572 38.4C49.572 36.5653 49.9987 34.9013 50.852 33.408C51.748 31.9147 53.1773 30.72 55.14 29.824C57.1453 28.928 59.8333 28.48 63.204 28.48H73.956V32.896H63.46C60.388 32.896 58.3187 33.408 57.252 34.432C56.1853 35.456 55.652 36.6933 55.652 38.144C55.652 39.808 56.3133 41.152 57.636 42.176C58.9587 43.1573 60.7933 43.648 63.14 43.648C65.444 43.648 67.4493 43.136 69.156 42.112C70.9053 41.088 72.164 39.5947 72.932 37.632L74.148 41.856C73.3373 43.8613 71.908 45.4613 69.86 46.656C67.812 47.808 65.2307 48.384 62.116 48.384ZM90.1395 48V14.08H96.2835V38.784L117.083 14.08H122.652V48H116.507V23.296L95.7715 48H90.1395ZM106.012 9.664C102.897 9.664 100.444 8.91733 98.6515 7.424C96.9022 5.888 96.0062 3.69066 95.9635 0.831997H100.124C100.166 2.45333 100.7 3.73333 101.724 4.672C102.79 5.61066 104.198 6.08 105.948 6.08C107.697 6.08 109.105 5.61066 110.172 4.672C111.238 3.73333 111.793 2.45333 111.836 0.831997H116.124C116.081 3.69066 115.164 5.888 113.372 7.424C111.58 8.91733 109.126 9.664 106.012 9.664ZM141.297 48V17.856L142.833 19.456H128.881V14.08H159.857V19.456H145.969L147.441 17.856V48H141.297ZM166.14 48V14.08H172.284V38.784L193.083 14.08H198.652V48H192.507V23.296L171.772 48H166.14ZM227.765 48V14.08H243.509C247.477 14.08 250.591 14.848 252.853 16.384C255.157 17.8773 256.309 20.0107 256.309 22.784C256.309 25.5573 255.221 27.712 253.045 29.248C250.911 30.7413 248.074 31.488 244.533 31.488L245.493 29.824C249.546 29.824 252.554 30.5707 254.517 32.064C256.479 33.5573 257.461 35.7547 257.461 38.656C257.461 41.6 256.351 43.904 254.132 45.568C251.957 47.1893 248.607 48 244.085 48H227.765ZM233.781 43.264H243.637C246.197 43.264 248.117 42.88 249.397 42.112C250.677 41.3013 251.317 40.0213 251.317 38.272C251.317 36.48 250.719 35.1787 249.525 34.368C248.373 33.5147 246.538 33.088 244.021 33.088H233.781V43.264ZM233.781 28.672H242.997C245.343 28.672 247.114 28.2453 248.309 27.392C249.546 26.496 250.165 25.2587 250.165 23.68C250.165 22.0587 249.546 20.8427 248.309 20.032C247.114 19.2213 245.343 18.816 242.997 18.816H233.781V28.672Z" fill="#0B3B55"/>
<path d="M285.033 48V3.2H291.433V48H285.033ZM313.741 48V8.768H298.381V3.2H335.437V8.768H320.077V48H313.741Z" fill="#FF8616"/>
</svg>
