<svg width="293" height="43" viewBox="0 0 293 43" fill="none" xmlns="http://www.w3.org/2000/svg">
<path d="M28.216 2.8H33.816V42H28.216V2.8ZM5.704 42H0.104V2.8H5.704V42ZM28.72 24.528H5.144V19.656H28.72V24.528ZM63.3455 42V35.728L63.0655 34.552V23.856C63.0655 21.5787 62.3935 19.824 61.0495 18.592C59.7428 17.3227 57.7642 16.688 55.1135 16.688C53.3588 16.688 51.6415 16.9867 49.9615 17.584C48.2815 18.144 46.8628 18.9093 45.7055 19.88L43.4655 15.848C44.9962 14.616 46.8255 13.6827 48.9535 13.048C51.1188 12.376 53.3775 12.04 55.7295 12.04C59.7988 12.04 62.9348 13.0293 65.1375 15.008C67.3402 16.9867 68.4415 20.0107 68.4415 24.08V42H63.3455ZM53.6015 42.336C51.3988 42.336 49.4575 41.9627 47.7775 41.216C46.1348 40.4693 44.8655 39.4427 43.9695 38.136C43.0735 36.792 42.6255 35.28 42.6255 33.6C42.6255 31.9947 42.9988 30.5387 43.7455 29.232C44.5295 27.9253 45.7802 26.88 47.4975 26.096C49.2522 25.312 51.6042 24.92 54.5535 24.92H63.9615V28.784H54.7775C52.0895 28.784 50.2788 29.232 49.3455 30.128C48.4122 31.024 47.9455 32.1067 47.9455 33.376C47.9455 34.832 48.5242 36.008 49.6815 36.904C50.8388 37.7627 52.4442 38.192 54.4975 38.192C56.5135 38.192 58.2682 37.744 59.7615 36.848C61.2922 35.952 62.3935 34.6453 63.0655 32.928L64.1295 36.624C63.4202 38.3787 62.1695 39.7787 60.3775 40.824C58.5855 41.832 56.3268 42.336 53.6015 42.336ZM78.1221 42V12.32H83.4981V33.936L101.698 12.32H106.57V42H101.194V20.384L83.0501 42H78.1221ZM92.0101 8.456C89.2847 8.456 87.1381 7.80267 85.5701 6.496C84.0394 5.152 83.2554 3.22933 83.2181 0.727997H86.8581C86.8954 2.14666 87.3621 3.26666 88.2581 4.088C89.1914 4.90933 90.4234 5.32 91.9541 5.32C93.4847 5.32 94.7167 4.90933 95.6501 4.088C96.5834 3.26666 97.0687 2.14666 97.1061 0.727997H100.858C100.821 3.22933 100.018 5.152 98.4501 6.496C96.8821 7.80267 94.7354 8.456 92.0101 8.456ZM122.885 42V15.624L124.229 17.024H112.021V12.32H139.125V17.024H126.973L128.261 15.624V42H122.885ZM144.622 42V12.32H149.998V33.936L168.198 12.32H173.07V42H167.694V20.384L149.55 42H144.622ZM198.544 42V12.32H212.32C215.792 12.32 218.517 12.992 220.496 14.336C222.512 15.6427 223.52 17.5093 223.52 19.936C223.52 22.3627 222.568 24.248 220.664 25.592C218.797 26.8987 216.315 27.552 213.216 27.552L214.056 26.096C217.603 26.096 220.235 26.7493 221.952 28.056C223.669 29.3627 224.528 31.2853 224.528 33.824C224.528 36.4 223.557 38.416 221.616 39.872C219.712 41.2907 216.781 42 212.824 42H198.544ZM203.808 37.856H212.432C214.672 37.856 216.352 37.52 217.472 36.848C218.592 36.1387 219.152 35.0187 219.152 33.488C219.152 31.92 218.629 30.7813 217.584 30.072C216.576 29.3253 214.971 28.952 212.768 28.952H203.808V37.856ZM203.808 25.088H211.872C213.925 25.088 215.475 24.7147 216.52 23.968C217.603 23.184 218.144 22.1013 218.144 20.72C218.144 19.3013 217.603 18.2373 216.52 17.528C215.475 16.8187 213.925 16.464 211.872 16.464H203.808V25.088Z" fill="white"/>
<path d="M248.653 42V2.8H254.253V42H248.653ZM273.773 42V7.672H260.333V2.8H292.757V7.672H279.317V42H273.773Z" fill="#FF8616"/>
</svg>
