<?xml version="1.0" encoding="UTF-8"?>
<!DOCTYPE svg PUBLIC "-//W3C//DTD SVG 1.1//EN" "http://www.w3.org/Graphics/SVG/1.1/DTD/svg11.dtd">
<!-- Creator: CorelDRAW X8 -->
<svg xmlns="http://www.w3.org/2000/svg" xml:space="preserve" width="37mm" height="31.301mm" version="1.1" style="shape-rendering:geometricPrecision; text-rendering:geometricPrecision; image-rendering:optimizeQuality; fill-rule:evenodd; clip-rule:evenodd"
viewBox="0 0 3700 3130"
 xmlns:xlink="http://www.w3.org/1999/xlink">
 <defs>
  <style type="text/css">
   <![CDATA[
    .str0 {stroke:#0B3B55;stroke-width:135.46}
    .str1 {stroke:#0B3B55;stroke-width:135.46;stroke-linecap:round}
    .fil2 {fill:none}
    .fil0 {fill:#FF8616}
    .fil1 {fill:white}
   ]]>
  </style>
 </defs>
 <g id="Слой_x0020_1">
  <metadata id="CorelCorpID_0Corel-Layer"/>
  <path class="fil0" d="M2059 1192c-16,0 -31,-4 -44,-13 -13,-8 -23,-20 -30,-36 -7,-16 -11,-35 -11,-58 0,-22 4,-41 11,-57 7,-16 17,-28 30,-36 13,-9 28,-13 44,-13 16,0 30,4 43,13 13,8 23,20 31,36 7,16 10,35 10,57 0,23 -3,42 -10,58 -8,16 -18,28 -31,36 -13,9 -27,13 -43,13zm0 -27c11,0 20,-3 28,-8 8,-6 15,-15 20,-27 5,-12 7,-27 7,-45 0,-17 -2,-32 -7,-44 -5,-11 -12,-21 -20,-26 -8,-6 -17,-9 -28,-9 -11,0 -21,3 -29,9 -8,5 -15,15 -20,26 -4,12 -6,27 -6,44 0,18 2,33 6,45 5,12 12,21 20,27 8,5 18,8 29,8zm30 381l0 -196 13 14 -60 0 0 -26 76 0 0 208 -29 0zm-30 359c-16,0 -31,-4 -44,-13 -13,-8 -23,-20 -30,-36 -7,-16 -11,-35 -11,-58 0,-22 4,-42 11,-57 7,-16 17,-28 30,-36 13,-9 28,-13 44,-13 16,0 30,4 43,13 13,8 23,20 31,36 7,15 10,35 10,57 0,23 -3,42 -10,58 -8,16 -18,28 -31,36 -13,9 -27,13 -43,13zm0 -27c11,0 20,-3 28,-8 8,-7 15,-15 20,-28 5,-11 7,-26 7,-44 0,-17 -2,-32 -7,-44 -5,-12 -12,-21 -20,-27 -8,-5 -17,-9 -28,-9 -11,0 -21,4 -29,9 -8,6 -15,15 -20,27 -4,12 -6,27 -6,44 0,18 2,33 6,44 5,13 12,21 20,28 8,5 18,8 29,8z"/>
  <path class="fil0" d="M422 656c-16,0 -31,-5 -44,-13 -13,-8 -23,-20 -30,-36 -8,-16 -11,-35 -11,-58 0,-21 3,-41 11,-56 7,-16 17,-28 30,-37 13,-8 28,-12 44,-12 16,0 30,4 43,12 13,9 23,21 30,37 8,15 11,35 11,56 0,23 -3,42 -11,58 -7,16 -17,28 -30,36 -13,8 -27,13 -43,13zm0 -27c11,0 20,-3 28,-9 8,-6 15,-14 20,-27 5,-11 7,-26 7,-44 0,-16 -2,-31 -7,-43 -5,-12 -12,-21 -20,-26 -8,-7 -17,-10 -28,-10 -11,0 -21,3 -29,10 -8,5 -15,14 -20,26 -4,12 -6,27 -6,43 0,18 2,33 6,44 5,13 12,21 20,27 8,6 18,9 29,9zm-50 382l0 -197 13 14 -60 0 0 -26 76 0 0 209 -29 0zm50 358c-16,0 -31,-4 -44,-12 -13,-8 -23,-20 -30,-36 -8,-16 -11,-35 -11,-58 0,-23 3,-42 11,-57 7,-16 17,-28 30,-37 13,-8 28,-12 44,-12 16,0 30,4 43,12 13,9 23,21 30,37 8,15 11,34 11,57 0,23 -3,42 -11,58 -7,16 -17,28 -30,36 -13,8 -27,12 -43,12zm0 -26c11,0 20,-3 28,-9 8,-6 15,-15 20,-27 5,-12 7,-26 7,-44 0,-17 -2,-32 -7,-44 -5,-12 -12,-21 -20,-27 -8,-6 -17,-9 -28,-9 -11,0 -21,3 -29,9 -8,6 -15,15 -20,27 -4,12 -6,27 -6,44 0,18 2,32 6,44 5,12 12,21 20,27 8,6 18,9 29,9zm29 380l0 -196 13 14 -59 0 0 -26 76 0 0 208 -30 0z"/>
  <path class="fil0" d="M695 315c-16,0 -31,-4 -43,-12 -13,-9 -23,-21 -31,-37 -7,-15 -11,-35 -11,-57 0,-23 4,-42 11,-58 8,-16 18,-28 31,-36 12,-8 27,-12 43,-12 16,0 31,4 44,12 13,8 23,20 30,36 7,16 11,35 11,58 0,22 -4,42 -11,57 -7,16 -17,28 -30,37 -13,8 -28,12 -44,12zm0 -26c11,0 20,-3 29,-9 8,-6 15,-15 19,-27 5,-12 7,-27 7,-44 0,-18 -2,-33 -7,-44 -4,-13 -11,-21 -19,-27 -9,-6 -18,-9 -29,-9 -11,0 -20,3 -28,9 -9,6 -15,14 -20,27 -5,11 -7,26 -7,44 0,17 2,32 7,44 5,12 11,21 20,27 8,6 17,9 28,9zm-50 380l0 -196 13 14 -59 0 0 -26 76 0 0 208 -30 0zm50 360c-16,0 -31,-4 -43,-12 -13,-9 -23,-21 -31,-37 -7,-15 -11,-35 -11,-57 0,-23 4,-42 11,-58 8,-16 18,-28 31,-36 12,-9 27,-13 43,-13 16,0 31,4 44,13 13,8 23,20 30,36 7,16 11,35 11,58 0,22 -4,42 -11,57 -7,16 -17,28 -30,37 -13,8 -28,12 -44,12zm0 -26c11,0 20,-4 29,-10 8,-5 15,-14 19,-26 5,-12 7,-27 7,-44 0,-18 -2,-33 -7,-45 -4,-12 -11,-20 -19,-27 -9,-5 -18,-8 -29,-8 -11,0 -20,3 -28,8 -9,7 -15,15 -20,27 -5,12 -7,27 -7,45 0,17 2,32 7,44 5,12 11,21 20,26 8,6 17,10 28,10zm30 380l0 -196 13 14 -60 0 0 -26 77 0 0 208 -30 0zm-30 359c-16,0 -31,-4 -43,-13 -13,-8 -23,-20 -31,-36 -7,-16 -11,-35 -11,-57 0,-23 4,-42 11,-58 8,-16 18,-28 31,-36 12,-9 27,-13 43,-13 16,0 31,4 44,13 13,8 23,20 30,36 7,16 11,35 11,58 0,22 -4,41 -11,57 -7,16 -17,28 -30,36 -13,9 -28,13 -44,13zm0 -27c11,0 20,-3 29,-9 8,-5 15,-15 19,-26 5,-12 7,-27 7,-44 0,-18 -2,-33 -7,-45 -4,-12 -11,-21 -19,-27 -9,-6 -18,-8 -29,-8 -11,0 -20,2 -28,8 -9,6 -15,15 -20,27 -5,12 -7,27 -7,45 0,17 2,32 7,44 5,11 11,21 20,26 8,6 17,9 28,9zm0 383c-16,0 -31,-4 -43,-12 -13,-9 -23,-21 -31,-37 -7,-15 -11,-35 -11,-57 0,-23 4,-42 11,-58 8,-16 18,-28 31,-36 12,-8 27,-13 43,-13 16,0 31,5 44,13 13,8 23,20 30,36 7,16 11,35 11,58 0,22 -4,42 -11,57 -7,16 -17,28 -30,37 -13,8 -28,12 -44,12zm0 -26c11,0 20,-3 29,-9 8,-6 15,-15 19,-27 5,-12 7,-27 7,-44 0,-18 -2,-33 -7,-44 -4,-13 -11,-21 -19,-27 -9,-6 -18,-9 -29,-9 -11,0 -20,3 -28,9 -9,6 -15,14 -20,27 -5,11 -7,26 -7,44 0,17 2,32 7,44 5,12 11,21 20,27 8,6 17,9 28,9zm-50 380l0 -196 13 14 -59 0 0 -26 76 0 0 208 -30 0zm80 357l0 -196 13 14 -60 0 0 -26 77 0 0 208 -30 0z"/>
  <path class="fil0" d="M1236 509c-16,0 -31,-4 -44,-13 -12,-8 -22,-20 -30,-36 -7,-16 -11,-35 -11,-57 0,-23 4,-42 11,-58 8,-16 18,-28 30,-36 13,-9 28,-13 44,-13 16,0 30,4 43,13 13,8 23,20 30,36 8,16 12,35 12,58 0,22 -4,41 -12,57 -7,16 -17,28 -30,36 -13,9 -27,13 -43,13zm0 -27c11,0 20,-3 28,-9 9,-5 15,-15 19,-26 5,-12 8,-27 8,-44 0,-18 -3,-33 -8,-45 -4,-12 -10,-20 -19,-27 -8,-6 -17,-8 -28,-8 -11,0 -21,2 -29,8 -8,7 -15,15 -20,27 -4,12 -7,27 -7,45 0,17 3,32 7,44 5,11 12,21 20,26 8,6 18,9 29,9zm-50 382l0 -197 13 14 -60 0 0 -26 76 0 0 209 -29 0zm50 359c-16,0 -31,-5 -44,-13 -12,-8 -22,-20 -30,-36 -7,-16 -11,-35 -11,-58 0,-22 4,-41 11,-58 8,-15 18,-28 30,-36 13,-8 28,-12 44,-12 16,0 30,4 43,12 13,8 23,21 30,36 8,17 12,36 12,58 0,23 -4,42 -12,58 -7,16 -17,28 -30,36 -13,8 -27,13 -43,13zm0 -27c11,0 20,-3 28,-9 9,-6 15,-15 19,-26 5,-12 8,-27 8,-45 0,-17 -3,-32 -8,-44 -4,-12 -10,-21 -19,-27 -8,-6 -17,-9 -28,-9 -11,0 -21,3 -29,9 -8,6 -15,15 -20,27 -4,12 -7,27 -7,44 0,18 3,33 7,45 5,11 12,20 20,26 8,6 18,9 29,9zm30 381l0 -196 12 14 -59 0 0 -26 76 0 0 208 -29 0zm-30 358c-16,0 -31,-4 -44,-12 -12,-8 -22,-21 -30,-36 -7,-16 -11,-35 -11,-58 0,-23 4,-42 11,-58 8,-15 18,-28 30,-36 13,-8 28,-12 44,-12 16,0 30,4 43,12 13,8 23,21 30,36 8,16 12,35 12,58 0,23 -4,42 -12,58 -7,15 -17,28 -30,36 -13,8 -27,12 -43,12zm0 -26c11,0 20,-3 28,-9 9,-6 15,-15 19,-27 5,-12 8,-27 8,-44 0,-18 -3,-32 -8,-44 -4,-12 -10,-21 -19,-27 -8,-6 -17,-9 -28,-9 -11,0 -21,3 -29,9 -8,6 -15,15 -20,27 -4,12 -7,26 -7,44 0,17 3,32 7,44 5,12 12,21 20,27 8,6 18,9 29,9zm0 383c-16,0 -31,-4 -44,-13 -12,-8 -22,-20 -30,-36 -7,-16 -11,-35 -11,-57 0,-23 4,-42 11,-58 8,-16 18,-28 30,-36 13,-9 28,-13 44,-13 16,0 30,4 43,13 13,8 23,20 30,36 8,16 12,35 12,58 0,22 -4,41 -12,57 -7,16 -17,28 -30,36 -13,9 -27,13 -43,13zm0 -27c11,0 20,-3 28,-9 9,-6 15,-15 19,-26 5,-12 8,-27 8,-44 0,-18 -3,-33 -8,-45 -4,-12 -10,-20 -19,-27 -8,-6 -17,-8 -28,-8 -11,0 -21,2 -29,8 -8,7 -15,15 -20,27 -4,12 -7,27 -7,45 0,17 3,32 7,44 5,11 12,20 20,26 8,6 18,9 29,9zm-50 381l0 -196 13 14 -60 0 0 -26 76 0 0 208 -29 0zm80 356l0 -196 12 14 -59 0 0 -26 76 0 0 208 -29 0z"/>
  <path class="fil0" d="M1840 683c-17,0 -31,-5 -44,-13 -13,-8 -23,-20 -31,-36 -7,-16 -11,-35 -11,-58 0,-22 4,-40 11,-56 8,-16 18,-28 31,-37 13,-8 27,-12 44,-12 16,0 30,4 43,12 13,9 23,21 30,37 7,16 11,34 11,56 0,23 -4,42 -11,58 -7,16 -17,28 -30,36 -13,8 -27,13 -43,13zm0 -27c11,0 20,-2 28,-9 8,-6 15,-14 19,-26 5,-12 8,-27 8,-45 0,-17 -3,-32 -8,-43 -4,-12 -11,-21 -19,-26 -8,-6 -17,-10 -28,-10 -11,0 -21,4 -29,10 -8,5 -15,14 -20,26 -4,11 -7,26 -7,43 0,18 3,33 7,45 5,12 12,20 20,26 8,7 18,9 29,9zm-50 382l0 -197 13 14 -60 0 0 -26 76 0 0 209 -29 0zm50 359c-17,0 -31,-5 -44,-13 -13,-8 -23,-20 -31,-36 -7,-16 -11,-35 -11,-58 0,-22 4,-42 11,-57 8,-16 18,-28 31,-37 13,-8 27,-12 44,-12 16,0 30,4 43,12 13,9 23,21 30,37 7,15 11,35 11,57 0,23 -4,42 -11,58 -7,16 -17,28 -30,36 -13,8 -27,13 -43,13zm0 -27c11,0 20,-3 28,-9 8,-6 15,-14 19,-26 5,-12 8,-27 8,-45 0,-17 -3,-32 -8,-44 -4,-12 -11,-21 -19,-26 -8,-7 -17,-10 -28,-10 -11,0 -21,3 -29,10 -8,5 -15,14 -20,26 -4,12 -7,27 -7,44 0,18 3,33 7,45 5,12 12,20 20,26 8,6 18,9 29,9zm29 381l0 -196 13 14 -59 0 0 -26 76 0 0 208 -30 0z"/>
  <path class="fil0" d="M117 1248c-16,0 -31,-4 -43,-12 -13,-8 -23,-20 -31,-36 -7,-16 -11,-36 -11,-58 0,-22 4,-42 11,-57 8,-17 18,-28 31,-37 12,-8 27,-12 43,-12 16,0 31,4 44,12 12,9 23,20 30,37 7,15 11,35 11,57 0,23 -4,42 -11,58 -7,16 -18,28 -30,36 -13,8 -28,12 -44,12zm0 -26c11,0 20,-3 29,-9 8,-6 15,-15 19,-27 5,-11 7,-26 7,-44 0,-18 -2,-32 -7,-44 -4,-12 -11,-21 -19,-27 -9,-6 -18,-9 -29,-9 -10,0 -20,3 -28,9 -9,6 -15,15 -20,27 -5,12 -7,26 -7,44 0,18 2,33 7,44 5,12 11,21 20,27 8,6 18,9 28,9zm-50 380l0 -196 13 14 -60 0 0 -25 77 0 0 207 -30 0zm50 359c-16,0 -31,-4 -43,-12 -13,-9 -23,-21 -31,-37 -7,-15 -11,-35 -11,-57 0,-23 4,-42 11,-58 8,-16 18,-27 31,-36 12,-8 27,-12 43,-12 16,0 31,4 44,12 12,9 23,20 30,36 7,16 11,35 11,58 0,22 -4,42 -11,57 -7,16 -18,28 -30,37 -13,8 -28,12 -44,12zm0 -26c11,0 20,-3 29,-9 8,-6 15,-15 19,-27 5,-12 7,-26 7,-44 0,-18 -2,-33 -7,-44 -4,-12 -11,-21 -19,-27 -9,-6 -18,-9 -29,-9 -10,0 -20,3 -28,9 -9,6 -15,15 -20,27 -5,11 -7,26 -7,44 0,18 2,32 7,44 5,12 11,21 20,27 8,6 18,9 28,9z"/>
  <path class="fil0" d="M340 2293l0 -196 12 14 -60 0 0 -26 77 0 0 208 -29 0zm49 359c-16,0 -30,-4 -43,-12 -13,-9 -23,-21 -30,-37 -8,-16 -11,-35 -11,-57 0,-23 3,-42 11,-58 7,-16 17,-28 30,-36 13,-8 27,-13 43,-13 17,0 31,5 44,13 13,8 23,20 30,36 8,16 11,35 11,58 0,22 -3,41 -11,57 -7,16 -17,28 -30,37 -13,8 -27,12 -44,12zm0 -26c11,0 21,-3 29,-10 9,-5 15,-14 19,-26 5,-12 7,-27 7,-44 0,-18 -2,-33 -7,-45 -4,-12 -10,-20 -19,-26 -8,-7 -18,-9 -29,-9 -11,0 -20,2 -28,9 -9,6 -15,14 -20,26 -4,12 -7,27 -7,45 0,17 3,32 7,44 5,12 11,21 20,26 8,7 17,10 28,10z"/>
  <path class="fil0" d="M942 540l0 -196 13 14 -60 0 0 -26 76 0 0 208 -29 0zm50 360c-16,0 -31,-4 -44,-13 -12,-8 -23,-20 -30,-36 -7,-16 -11,-35 -11,-58 0,-22 4,-41 11,-57 7,-16 18,-28 30,-36 13,-9 28,-13 44,-13 16,0 30,4 43,13 13,8 23,20 31,36 7,16 11,35 11,57 0,23 -4,42 -11,58 -8,16 -18,28 -31,36 -13,9 -27,13 -43,13zm0 -27c11,0 20,-2 28,-8 9,-7 15,-15 20,-27 5,-12 7,-27 7,-45 0,-17 -2,-32 -7,-44 -5,-11 -11,-21 -20,-26 -8,-6 -17,-9 -28,-9 -11,0 -21,3 -29,9 -8,5 -15,15 -20,26 -4,12 -6,27 -6,44 0,18 2,33 6,45 5,12 12,20 20,27 8,6 18,8 29,8zm0 383c-16,0 -31,-4 -44,-12 -12,-8 -23,-21 -30,-36 -7,-16 -11,-36 -11,-58 0,-23 4,-42 11,-58 7,-16 18,-27 30,-36 13,-8 28,-12 44,-12 16,0 30,4 43,12 13,9 23,20 31,36 7,16 11,35 11,58 0,22 -4,42 -11,58 -8,15 -18,28 -31,36 -13,8 -27,12 -43,12zm0 -26c11,0 20,-3 28,-9 9,-6 15,-15 20,-27 5,-12 7,-26 7,-44 0,-18 -2,-32 -7,-44 -5,-12 -11,-21 -20,-27 -8,-6 -17,-9 -28,-9 -11,0 -21,3 -29,9 -8,6 -15,15 -20,27 -4,12 -6,26 -6,44 0,18 2,32 6,44 5,12 12,21 20,27 8,6 18,9 29,9zm30 380l0 -196 13 14 -60 0 0 -26 76 0 0 208 -29 0zm-80 357l0 -196 13 14 -60 0 0 -26 76 0 0 208 -29 0zm50 358c-16,0 -31,-4 -44,-12 -12,-8 -23,-20 -30,-36 -7,-16 -11,-35 -11,-58 0,-22 4,-42 11,-57 7,-16 18,-28 30,-37 13,-8 28,-12 44,-12 16,0 30,4 43,12 13,9 23,21 31,37 7,15 11,35 11,57 0,23 -4,42 -11,58 -8,16 -18,28 -31,36 -13,8 -27,12 -43,12zm0 -26c11,0 20,-3 28,-9 9,-6 15,-15 20,-27 5,-11 7,-26 7,-44 0,-17 -2,-32 -7,-44 -5,-12 -11,-21 -20,-27 -8,-6 -17,-9 -28,-9 -11,0 -21,3 -29,9 -8,6 -15,15 -20,27 -4,12 -6,27 -6,44 0,18 2,33 6,44 5,12 12,21 20,27 8,6 18,9 29,9zm0 383c-16,0 -31,-4 -44,-13 -12,-8 -23,-20 -30,-36 -7,-16 -11,-35 -11,-58 0,-22 4,-41 11,-57 7,-16 18,-28 30,-36 13,-9 28,-13 44,-13 16,0 30,4 43,13 13,8 23,20 31,36 7,16 11,35 11,57 0,23 -4,42 -11,58 -8,16 -18,28 -31,36 -13,9 -27,13 -43,13zm0 -27c11,0 20,-3 28,-8 9,-7 15,-15 20,-27 5,-12 7,-27 7,-45 0,-17 -2,-32 -7,-44 -5,-11 -11,-21 -20,-26 -8,-6 -17,-9 -28,-9 -11,0 -21,3 -29,9 -8,5 -15,15 -20,26 -4,12 -6,27 -6,44 0,18 2,33 6,45 5,12 12,20 20,27 8,5 18,8 29,8z"/>
  <path class="fil0" d="M1508 321l0 -196 13 13 -60 0 0 -25 77 0 0 208 -30 0zm50 358c-16,0 -31,-4 -44,-12 -12,-9 -22,-20 -30,-37 -7,-15 -11,-34 -11,-57 0,-22 4,-41 11,-56 8,-16 18,-28 30,-37 13,-8 28,-12 44,-12 16,0 31,4 43,12 13,9 23,21 30,37 8,15 12,34 12,56 0,23 -4,42 -12,57 -7,17 -17,28 -30,37 -12,8 -27,12 -43,12zm0 -26c11,0 20,-3 28,-9 9,-6 15,-15 20,-27 4,-11 7,-26 7,-44 0,-18 -3,-32 -7,-43 -5,-12 -11,-21 -20,-27 -8,-6 -17,-9 -28,-9 -11,0 -20,3 -29,9 -8,6 -15,15 -19,27 -5,11 -7,25 -7,43 0,18 2,33 7,44 4,12 11,21 19,27 9,6 18,9 29,9zm0 384c-16,0 -31,-4 -44,-13 -12,-8 -22,-20 -30,-36 -7,-16 -11,-35 -11,-57 0,-23 4,-42 11,-58 8,-16 18,-28 30,-36 13,-9 28,-13 44,-13 16,0 31,4 43,13 13,8 23,20 30,36 8,16 12,35 12,58 0,22 -4,41 -12,57 -7,16 -17,28 -30,36 -12,9 -27,13 -43,13zm0 -27c11,0 20,-3 28,-9 9,-5 15,-15 20,-26 4,-12 7,-27 7,-44 0,-18 -3,-33 -7,-45 -5,-12 -11,-21 -20,-27 -8,-5 -17,-8 -28,-8 -11,0 -20,3 -29,8 -8,6 -15,15 -19,27 -5,12 -7,27 -7,45 0,17 2,32 7,44 4,11 11,21 19,26 9,6 18,9 29,9zm30 381l0 -196 12 14 -59 0 0 -26 76 0 0 208 -29 0zm-80 356l0 -196 13 14 -60 0 0 -25 77 0 0 207 -30 0zm50 359c-16,0 -31,-4 -44,-13 -12,-8 -22,-20 -30,-36 -7,-15 -11,-35 -11,-57 0,-23 4,-42 11,-58 8,-16 18,-28 30,-36 13,-9 28,-13 44,-13 16,0 31,4 43,13 13,8 23,20 30,36 8,16 12,35 12,58 0,22 -4,42 -12,57 -7,16 -17,28 -30,36 -12,9 -27,13 -43,13zm0 -26c11,0 20,-4 28,-9 9,-6 15,-15 20,-27 4,-12 7,-27 7,-44 0,-18 -3,-33 -7,-44 -5,-13 -11,-21 -20,-28 -8,-5 -17,-8 -28,-8 -11,0 -20,3 -29,8 -8,7 -15,15 -19,28 -5,11 -7,26 -7,44 0,17 2,32 7,44 4,12 11,21 19,27 9,5 18,9 29,9zm0 382c-16,0 -31,-4 -44,-12 -12,-9 -22,-20 -30,-37 -7,-15 -11,-34 -11,-57 0,-22 4,-42 11,-58 8,-15 18,-28 30,-36 13,-8 28,-12 44,-12 16,0 31,4 43,12 13,8 23,21 30,36 8,16 12,36 12,58 0,23 -4,42 -12,57 -7,17 -17,28 -30,37 -12,8 -27,12 -43,12zm0 -26c11,0 20,-3 28,-9 9,-6 15,-15 20,-27 4,-11 7,-26 7,-44 0,-18 -3,-32 -7,-44 -5,-12 -11,-21 -20,-27 -8,-6 -17,-9 -28,-9 -11,0 -20,3 -29,9 -8,6 -15,15 -19,27 -5,12 -7,26 -7,44 0,18 2,33 7,44 4,12 11,21 19,27 9,6 18,9 29,9z"/>
  <path class="fil0" d="M1787 2675l0 -196 13 14 -60 0 0 -26 76 0 0 208 -29 0zm50 359c-16,0 -31,-4 -44,-12 -12,-9 -22,-21 -30,-37 -7,-16 -11,-35 -11,-57 0,-23 4,-42 11,-58 8,-16 18,-28 30,-36 13,-8 28,-13 44,-13 16,0 31,5 43,13 13,8 23,20 31,36 7,16 11,35 11,58 0,22 -4,41 -11,57 -8,16 -18,28 -31,37 -12,8 -27,12 -43,12zm0 -26c11,0 21,-3 28,-10 9,-5 15,-14 20,-26 4,-12 7,-27 7,-44 0,-18 -3,-33 -7,-45 -5,-12 -11,-20 -20,-26 -7,-7 -17,-9 -28,-9 -11,0 -21,2 -29,9 -8,6 -15,14 -19,26 -5,12 -7,27 -7,45 0,17 2,32 7,44 4,12 11,21 19,26 8,7 18,10 29,10z"/>
  <path class="fil1 str0" d="M1898 1497c0,-427 -346,-774 -773,-774 -426,0 -772,347 -772,774 0,426 346,772 772,772 427,0 773,-346 773,-772z"/>
  <path class="fil0" d="M803 1870l0 -664 95 0 0 664 -95 0zm427 0l0 -582 -229 0 0 -82 551 0 0 82 -228 0 0 582 -94 0 0 0z"/>
  <line class="fil2 str1" x1="1682" y1="2096" x2="2603" y2= "3016" />
 </g>
</svg>
